# xmcd
#
# Track frame offsets:
#	150
#	19500
#	40640
#	53050
#
# Disc length: 893 seconds
#
# Revision: 0
# Processed by: cddbd v1.5.1PL0 Copyright (c) Steve Scherf et al.
# Submitted via: dBpowerAMP V4.0
#
DISCID=22037b04
DTITLE=Shania Twain - Single Release
DYEAR=1900
DGENRE=Country
TTITLE0=Any Man Of Mine
TTITLE1=Raining On Our Love
TTITLE2=God Ain't Gonna Getcha For That
TTITLE3=Still Under The Weather
EXTD=
EXTT0=
EXTT1=
EXTT2=
EXTT3=
PLAYORDER=
